<?xml version="1.0" standalone="no"?>
<svg xmlns="http://www.w3.org/2000/svg" viewBox="0 0 127.728 36" width="127.728" height="36"><g fill="#d8bc69" color="#d8bc69" transform="translate(0 4) scale(0.5185186)"><svg width="54.0" height="54.0" x="0.0" y="0.0" viewBox="0 0 54 54"><path fill="currentColor" fill-rule="evenodd" d="M.855 53.98c-.7.18-1.224-.903-.525-1.264 5.77-2.166 8.392-4.333 9.966-6.679-6.119-4.513-6.818-9.75-1.924-15.888 4.72 2.89 6.294 9.028 3.671 13.902 2.973-3.973 5.07-8.305 7.343-12.638-6.294-5.054-6.993-11.555-2.098-19.316 4.545 3.972 5.245 10.11 2.448 18.775 2.271-4.152 4.545-8.125 8.217-11.554C23.757 10.832 25.155 4.334 32.148 0c1.922 6.138.7 12.457-3.67 18.956 1.747-1.625 7.167-5.235 9.09-5.957 3.845-6.5 9.264-8.305 16.432-5.416-1.922 7.22-9.964 10.47-16.083 6.68-5.769 2.528-9.44 5.957-12.412 9.748 5.07-3.79 11.013-4.874 18.008-3.068-3.847 7.763-10.141 9.026-18.533 3.792-2.973 3.971-5.07 8.665-7.518 13.178 3.847-5.237 9.267-7.041 16.085-5.777-3.497 6.499-8.917 8.484-16.085 5.777C13.792 44.232 9.595 50.37.855 53.98"></path></svg></g><path fill="#000000" fill-rule="nonzero" d="M0.29 0.41L0.29 0.41Q1.51 0.41 3.82 0.31Q6.12 0.22 6.86 0.22L6.86 0.22L7.51 0.22Q10.66 0.22 12.19 1.50Q13.73 2.78 13.73 4.87L13.73 4.87Q13.73 7.85 9.84 9L9.84 9L9.84 9.07Q12.10 9.41 13.40 10.84Q14.71 12.26 14.71 14.26L14.71 14.26Q14.71 16.92 12.90 18.41Q11.09 19.90 7.58 19.90L7.58 19.90Q6.62 19.90 4.48 19.74Q2.33 19.58 1.06 19.58L1.06 19.58Q0.91 19.58 0.60 19.60Q0.29 19.61 0.14 19.61L0.14 19.61Q0 19.18 0.14 18.74L0.14 18.74L2.14 18.48Q2.23 17.57 2.23 15.67L2.23 15.67L2.23 1.54L0.29 1.30Q0.19 0.94 0.29 0.41ZM6.72 9.84L6.72 9.84L4.80 9.84L4.80 18.53Q6.02 18.74 6.74 18.79L6.74 18.79Q9.65 18.79 10.75 17.70Q11.86 16.61 11.86 14.28L11.86 14.28Q11.86 12.41 10.50 11.12Q9.14 9.84 6.72 9.84ZM6.89 1.22L6.89 1.22Q5.69 1.22 4.90 1.39L4.90 1.39Q4.80 2.30 4.80 4.39L4.80 4.39L4.80 8.64L6.67 8.64Q8.90 8.64 9.92 7.73Q10.94 6.82 10.94 5.02L10.94 5.02Q10.94 3.19 9.83 2.21Q8.71 1.22 6.89 1.22ZM19.13 16.39L19.13 16.39Q19.13 17.64 19.58 18.16Q20.04 18.67 21.02 18.67L21.02 18.67Q21.74 18.67 22.62 18.23Q23.50 17.78 24.24 16.94L24.24 16.94L24.24 13.20Q21.77 13.34 20.45 14.08Q19.13 14.81 19.13 16.39ZM24.24 12.34L24.24 12.34L24.24 11.11Q24.24 9.07 23.77 8.15Q23.30 7.22 22.22 7.22L22.22 7.22Q21.12 7.22 20.45 7.93Q19.78 8.64 19.54 10.34L19.54 10.34Q18.77 10.51 18.41 10.51L18.41 10.51Q17.47 10.51 17.30 9.84L17.30 9.84Q17.30 8.21 18.72 7.25Q20.14 6.29 22.25 6.29L22.25 6.29Q24.58 6.29 25.55 7.24Q26.52 8.18 26.52 10.63L26.52 10.63L26.52 17.40Q26.52 18 26.59 18.43L26.59 18.43L28.49 18.67Q28.58 19.03 28.49 19.58L28.49 19.58Q26.78 19.66 24.86 19.92L24.86 19.92Q24.67 19.73 24.62 19.44L24.62 19.44L24.50 17.78Q22.51 20.06 20.06 20.06L20.06 20.06Q18.55 20.06 17.70 19.20Q16.85 18.34 16.85 16.87L16.85 16.87Q16.85 14.66 18.85 13.54Q20.86 12.41 24.24 12.34ZM38.54 18.48L33.67 12.67L38.69 7.82L37.10 7.63Q37.01 7.25 37.10 6.70L37.10 6.70Q38.42 6.79 39.58 6.79L39.58 6.79Q40.51 6.79 42.07 6.72L42.07 6.72Q42.22 7.15 42.07 7.63L42.07 7.63L40.18 7.97L35.93 11.95L41.16 18.22L43.03 18.70Q43.13 19.08 43.03 19.66L43.03 19.66Q41.52 19.58 40.01 19.58L40.01 19.58Q38.98 19.58 36.96 19.63L36.96 19.63Q36.82 19.15 36.96 18.70L36.96 18.70L38.54 18.48ZM33.41 4.37L33.41 4.37L33.41 18.36L35.35 18.72Q35.45 19.10 35.35 19.68L35.35 19.68Q33.84 19.61 32.28 19.61L32.28 19.61Q31.18 19.61 29.16 19.66L29.16 19.66Q29.02 19.20 29.16 18.72L29.16 18.72L31.06 18.46Q31.15 17.14 31.15 15.41L31.15 15.41L31.15 1.66L29.18 1.42Q29.09 1.06 29.18 0.50L29.18 0.50Q30.79 0.38 33.29 0L33.29 0Q33.50 0.24 33.53 0.48L33.53 0.48Q33.41 1.10 33.41 4.37ZM52.90 18.48L48.02 12.67L53.04 7.82L51.46 7.63Q51.36 7.25 51.46 6.70L51.46 6.70Q52.78 6.79 53.93 6.79L53.93 6.79Q54.86 6.79 56.42 6.72L56.42 6.72Q56.57 7.15 56.42 7.63L56.42 7.63L54.53 7.97L50.28 11.95L55.51 18.22L57.38 18.70Q57.48 19.08 57.38 19.66L57.38 19.66Q55.87 19.58 54.36 19.58L54.36 19.58Q53.33 19.58 51.31 19.63L51.31 19.63Q51.17 19.15 51.31 18.70L51.31 18.70L52.90 18.48ZM47.76 4.37L47.76 4.37L47.76 18.36L49.70 18.72Q49.80 19.10 49.70 19.68L49.70 19.68Q48.19 19.61 46.63 19.61L46.63 19.61Q45.53 19.61 43.51 19.66L43.51 19.66Q43.37 19.20 43.51 18.72L43.51 18.72L45.41 18.46Q45.50 17.14 45.50 15.41L45.50 15.41L45.50 1.66L43.54 1.42Q43.44 1.06 43.54 0.50L43.54 0.50Q45.14 0.38 47.64 0L47.64 0Q47.86 0.24 47.88 0.48L47.88 0.48Q47.76 1.10 47.76 4.37ZM67.49 12.82L67.49 12.82L59.95 12.82Q59.74 18.94 63.62 18.94L63.62 18.94Q65.28 18.94 67.01 17.47L67.01 17.47Q67.37 17.69 67.56 18.22L67.56 18.22Q65.90 20.06 63.36 20.06L63.36 20.06Q57.50 20.06 57.50 13.18L57.50 13.18Q57.50 9.91 59.23 8.10Q60.96 6.29 63.26 6.29L63.26 6.29Q65.78 6.29 66.89 8.04Q67.99 9.79 67.99 12.60L67.99 12.60Q67.75 12.79 67.49 12.82ZM63.22 7.25L63.22 7.25Q61.97 7.25 61.09 8.54Q60.22 9.84 60.02 11.86L60.02 11.86L63 11.86Q64.78 11.86 65.54 11.64L65.54 11.64Q65.54 9.67 64.94 8.46Q64.34 7.25 63.22 7.25ZM74.14 6.77L74.14 6.77L74.09 9.24Q74.69 8.14 75.76 7.21Q76.82 6.29 77.78 6.29L77.78 6.29Q78.53 6.29 79.10 6.46L79.10 6.46Q79.30 6.77 79.30 7.27L79.30 7.27Q79.30 8.06 78.96 8.86L78.96 8.86Q78.10 8.62 77.30 8.62L77.30 8.62Q75.34 8.62 74.06 10.54L74.06 10.54L74.02 14.74L74.02 18.36L76.68 18.72Q76.78 19.10 76.68 19.68L76.68 19.68Q75.17 19.61 73.22 19.61L73.22 19.61Q71.76 19.61 69.74 19.66L69.74 19.66Q69.60 19.20 69.74 18.72L69.74 18.72L71.64 18.46Q71.74 17.14 71.74 15.41L71.74 15.41L71.74 8.83Q71.74 8.35 71.66 7.94L71.66 7.94L69.77 7.70Q69.67 7.34 69.77 6.79L69.77 6.79Q71.42 6.67 73.90 6.29L73.90 6.29Q74.11 6.53 74.14 6.77ZM84.46 10.66L84.46 10.66L84.46 18.36L86.40 18.72Q86.42 18.84 86.44 18.94Q86.45 19.03 86.45 19.15L86.45 19.15Q86.45 19.27 86.44 19.40Q86.42 19.54 86.40 19.68L86.40 19.68Q84.89 19.61 83.30 19.61L83.30 19.61Q82.75 19.61 81.97 19.62Q81.19 19.63 80.18 19.66L80.18 19.66Q80.11 19.44 80.11 19.20L80.11 19.20Q80.11 18.98 80.18 18.72L80.18 18.72L82.08 18.46Q82.13 17.78 82.15 17.03Q82.18 16.27 82.18 15.41L82.18 15.41L82.18 10.30Q82.18 8.71 82.10 7.94L82.10 7.94L80.21 7.70Q80.16 7.58 80.16 7.30L80.16 7.30Q80.16 7.18 80.16 7.06Q80.16 6.94 80.21 6.79L80.21 6.79Q81.84 6.70 84.34 6.29L84.34 6.29Q84.55 6.53 84.58 6.77L84.58 6.77Q84.46 7.44 84.46 10.66ZM80.95 2.09L80.95 2.09Q80.90 1.97 80.90 1.84Q80.90 1.70 80.90 1.58L80.90 1.58Q80.90 0.94 81.44 0.54Q81.98 0.14 82.78 0.14L82.78 0.14Q83.52 0.14 83.99 0.59Q84.46 1.03 84.46 1.80L84.46 1.80Q84.46 2.42 83.92 2.81Q83.38 3.19 82.54 3.19L82.54 3.19Q81.96 3.19 81.52 2.90Q81.07 2.62 80.95 2.09ZM89.40 20.62L89.40 20.62L89.40 10.30Q89.40 8.71 89.33 7.94L89.33 7.94L87.19 7.70Q87.10 7.34 87.19 6.79L87.19 6.79Q89.30 6.65 91.56 6.29L91.56 6.29Q91.78 6.53 91.80 6.77L91.80 6.77Q91.68 7.39 91.68 10.66L91.68 10.66L91.68 19.34Q91.68 21.29 91.33 22.85Q90.98 24.41 90.11 25.48Q89.23 26.54 87.94 26.54L87.94 26.54Q86.50 26.54 85.88 26.11Q85.27 25.68 85.27 24.74L85.27 24.74Q85.85 23.93 86.90 23.93L86.90 23.93Q87.24 23.93 87.60 24L87.60 24Q87.86 25.70 88.34 25.70L88.34 25.70Q88.92 25.70 89.16 24.55Q89.40 23.40 89.40 20.62ZM88.18 2.09L88.18 2.09Q88.13 1.97 88.13 1.84Q88.13 1.70 88.13 1.58L88.13 1.58Q88.13 0.94 88.67 0.54Q89.21 0.14 90 0.14L90 0.14Q90.74 0.14 91.21 0.59Q91.68 1.03 91.68 1.80L91.68 1.80Q91.68 2.42 91.14 2.81Q90.60 3.19 89.76 3.19L89.76 3.19Q89.18 3.19 88.74 2.90Q88.30 2.62 88.18 2.09Z" transform="translate(36, 8.208)"></path></svg>